<svg width="17" height="17" viewBox="0 0 17 17" fill="none" xmlns="http://www.w3.org/2000/svg">
<circle cx="8.5" cy="8.5" r="8" fill="white" stroke="#BBBBBB"/>
<path d="M9.33105 13H8.06641V5.60352H9.33105V13ZM7.96387 3.6416C7.96387 3.43652 8.02539 3.26335 8.14844 3.12207C8.27604 2.98079 8.46289 2.91016 8.70898 2.91016C8.95508 2.91016 9.14193 2.98079 9.26953 3.12207C9.39714 3.26335 9.46094 3.43652 9.46094 3.6416C9.46094 3.84668 9.39714 4.01758 9.26953 4.1543C9.14193 4.29102 8.95508 4.35938 8.70898 4.35938C8.46289 4.35938 8.27604 4.29102 8.14844 4.1543C8.02539 4.01758 7.96387 3.84668 7.96387 3.6416Z" fill="#BBBBBB"/>
</svg>
